<?xml version="1.0" ?><svg height="328px" version="1.1" viewBox="0 0 348 328" width="348px" xmlns="http://www.w3.org/2000/svg" xmlns:xlink="http://www.w3.org/1999/xlink"><title/><desc/><defs><path d="M169,88.0000511 C169,83.5797863 165.418329,80 161.000113,80 L158.999887,80 C154.577742,80 151,83.5817449 151,88.0000511 L151,142.134575 C144.474842,145.428214 140,152.191529 140,160 C140,171.045695 148.954305,180 160,180 C162.18992,180 164.297634,179.648033 166.269659,178.997581 L220.479747,233.207669 C223.60427,236.332192 228.668663,236.331337 231.792813,233.207187 L233.207187,231.792813 C236.334116,228.665884 236.331553,223.603631 233.207669,220.479747 L178.997581,166.269659 C179.648033,164.297634 180,162.18992 180,160 C180,152.191529 175.525158,145.428214 169.000002,142.134584 L169,88.0000511 Z" id="path-1"/><filter filterUnits="objectBoundingBox" height="200%" id="filter-2" width="200%" x="-50%" y="-50%"><feOffset dx="0" dy="4" in="SourceAlpha" result="shadowOffsetOuter1"/><feGaussianBlur in="shadowOffsetOuter1" result="shadowBlurOuter1" stdDeviation="2"/><feColorMatrix in="shadowBlurOuter1" type="matrix" values="0 0 0 0 0   0 0 0 0 0   0 0 0 0 0  0 0 0 0.5 0"/></filter><path d="M318.762125,140 C308.920163,61.0737685 241.592353,0 160,0 C71.63444,0 0,71.63444 0,160 C0,248.36556 71.63444,320 160,320 C219.22257,320 270.930063,287.82413 298.594823,240.000045 L249.44426,240 C227.471438,264.549974 195.539993,280 160,280 C93.72583,280 40,226.27417 40,160 C40,93.72583 93.72583,40 160,40 C219.459926,40 268.819269,83.2457332 278.340831,140 L260,140 L300,200 L340,140 L318.762125,140 L318.762125,140 Z" id="path-3"/><filter filterUnits="objectBoundingBox" height="200%" id="filter-4" width="200%" x="-50%" y="-50%"><feOffset dx="0" dy="4" in="SourceAlpha" result="shadowOffsetOuter1"/><feGaussianBlur in="shadowOffsetOuter1" result="shadowBlurOuter1" stdDeviation="2"/><feColorMatrix in="shadowBlurOuter1" type="matrix" values="0 0 0 0 0   0 0 0 0 0   0 0 0 0 0  0 0 0 0.5 0"/></filter></defs><g fill="none" fill-rule="evenodd" id="Page-1" stroke="none" stroke-width="1"><g id="clock" transform="translate(4.000000, 0.000000)"><g id="Combined-Shape"><use fill="black" fill-opacity="1" filter="url(#filter-2)" xlink:href="#path-1"/><use fill="#D98383" fill-rule="evenodd" xlink:href="#path-1"/></g><g id="Combined-Shape"><use fill="black" fill-opacity="1" filter="url(#filter-4)" xlink:href="#path-3"/><use fill="#697F9B" fill-rule="evenodd" xlink:href="#path-3"/></g></g></g></svg>